<svg width="112" height="62" viewBox="0 0 112 62" fill="none" xmlns="http://www.w3.org/2000/svg">
<path d="M1.05682 59V50.2727H6.32386V51.2102H2.11364V54.1591H6.05114V55.0966H2.11364V58.0625H6.39205V59H1.05682ZM8.58665 50.2727L11.1776 57.6193H11.2798L13.8707 50.2727H14.9787L11.7741 59H10.6832L7.47869 50.2727H8.58665ZM16.3381 59V50.2727H21.6051V51.2102H17.3949V54.1591H21.3324V55.0966H17.3949V58.0625H21.6733V59H16.3381ZM30.4304 50.2727V59H29.4077L24.652 52.1477H24.5668V59H23.5099V50.2727H24.5327L29.3054 57.142H29.3906V50.2727H30.4304ZM32.0678 51.2102V50.2727H38.6133V51.2102H35.869V59H34.8121V51.2102H32.0678ZM50.983 54.6364C50.983 55.5568 50.8168 56.3523 50.4844 57.0227C50.152 57.6932 49.696 58.2102 49.1165 58.5739C48.5369 58.9375 47.875 59.1193 47.1307 59.1193C46.3864 59.1193 45.7244 58.9375 45.1449 58.5739C44.5653 58.2102 44.1094 57.6932 43.777 57.0227C43.4446 56.3523 43.2784 55.5568 43.2784 54.6364C43.2784 53.7159 43.4446 52.9205 43.777 52.25C44.1094 51.5795 44.5653 51.0625 45.1449 50.6989C45.7244 50.3352 46.3864 50.1534 47.1307 50.1534C47.875 50.1534 48.5369 50.3352 49.1165 50.6989C49.696 51.0625 50.152 51.5795 50.4844 52.25C50.8168 52.9205 50.983 53.7159 50.983 54.6364ZM49.9602 54.6364C49.9602 53.8807 49.8338 53.2429 49.581 52.723C49.331 52.2031 48.9915 51.8097 48.5625 51.5426C48.1364 51.2756 47.6591 51.142 47.1307 51.142C46.6023 51.142 46.1236 51.2756 45.6946 51.5426C45.2685 51.8097 44.929 52.2031 44.6761 52.723C44.4261 53.2429 44.3011 53.8807 44.3011 54.6364C44.3011 55.392 44.4261 56.0298 44.6761 56.5497C44.929 57.0696 45.2685 57.4631 45.6946 57.7301C46.1236 57.9972 46.6023 58.1307 47.1307 58.1307C47.6591 58.1307 48.1364 57.9972 48.5625 57.7301C48.9915 57.4631 49.331 57.0696 49.581 56.5497C49.8338 56.0298 49.9602 55.392 49.9602 54.6364ZM52.7599 59V50.2727H55.7088C56.3906 50.2727 56.9503 50.3892 57.3878 50.6222C57.8253 50.8523 58.1491 51.169 58.3594 51.5724C58.5696 51.9759 58.6747 52.4347 58.6747 52.9489C58.6747 53.4631 58.5696 53.919 58.3594 54.3168C58.1491 54.7145 57.8267 55.027 57.392 55.2543C56.9574 55.4787 56.402 55.5909 55.7259 55.5909H53.3395V54.6364H55.6918C56.1577 54.6364 56.5327 54.5682 56.8168 54.4318C57.1037 54.2955 57.3111 54.1023 57.4389 53.8523C57.5696 53.5994 57.6349 53.2983 57.6349 52.9489C57.6349 52.5994 57.5696 52.294 57.4389 52.0327C57.3082 51.7713 57.0994 51.5696 56.8125 51.4276C56.5256 51.2827 56.1463 51.2102 55.6747 51.2102H53.8168V59H52.7599ZM56.8679 55.0795L59.0156 59H57.7884L55.6747 55.0795H56.8679ZM66.4016 53C66.3079 52.7131 66.1843 52.456 66.0309 52.2287C65.8803 51.9986 65.6999 51.8026 65.4897 51.6406C65.2823 51.4787 65.0465 51.3551 64.7823 51.2699C64.5181 51.1847 64.2283 51.142 63.913 51.142C63.396 51.142 62.9258 51.2756 62.5025 51.5426C62.0792 51.8097 61.7425 52.2031 61.4925 52.723C61.2425 53.2429 61.1175 53.8807 61.1175 54.6364C61.1175 55.392 61.244 56.0298 61.4968 56.5497C61.7496 57.0696 62.092 57.4631 62.5238 57.7301C62.9556 57.9972 63.4414 58.1307 63.9812 58.1307C64.4812 58.1307 64.9215 58.0241 65.3022 57.8111C65.6857 57.5952 65.984 57.2912 66.1971 56.8991C66.413 56.5043 66.521 56.0398 66.521 55.5057L66.8448 55.5739H64.2198V54.6364H67.5437V55.5739C67.5437 56.2926 67.3903 56.9176 67.0835 57.4489C66.7795 57.9801 66.359 58.392 65.8221 58.6847C65.288 58.9744 64.6744 59.1193 63.9812 59.1193C63.2085 59.1193 62.5295 58.9375 61.9442 58.5739C61.3619 58.2102 60.9073 57.6932 60.5806 57.0227C60.2567 56.3523 60.0948 55.5568 60.0948 54.6364C60.0948 53.946 60.1871 53.3253 60.3718 52.7741C60.5593 52.2202 60.8235 51.7486 61.1644 51.3594C61.5053 50.9702 61.9087 50.6719 62.3746 50.4645C62.8406 50.2571 63.3533 50.1534 63.913 50.1534C64.3732 50.1534 64.8022 50.223 65.1999 50.3622C65.6005 50.4986 65.957 50.6932 66.2695 50.946C66.5849 51.196 66.8477 51.4957 67.0579 51.8452C67.2681 52.1918 67.413 52.5767 67.4925 53H66.4016ZM69.4421 59H68.3342L71.5387 50.2727H72.6296L75.8342 59H74.7262L72.1183 51.6534H72.0501L69.4421 59ZM69.8512 55.5909H74.3171V56.5284H69.8512V55.5909ZM84.114 50.2727V59H83.0913L78.3356 52.1477H78.2504V59H77.1935V50.2727H78.2163L82.989 57.142H83.0742V50.2727H84.114ZM87.2855 50.2727V59H86.2287V50.2727H87.2855ZM89.1147 59V58.233L93.8192 51.2102H89.0636V50.2727H95.0806V51.0398L90.3761 58.0625H95.1317V59H89.1147ZM96.9045 59V50.2727H102.172V51.2102H97.9613V54.1591H101.899V55.0966H97.9613V58.0625H102.24V59H96.9045ZM104.076 59V50.2727H107.025C107.707 50.2727 108.267 50.3892 108.704 50.6222C109.142 50.8523 109.466 51.169 109.676 51.5724C109.886 51.9759 109.991 52.4347 109.991 52.9489C109.991 53.4631 109.886 53.919 109.676 54.3168C109.466 54.7145 109.143 55.027 108.708 55.2543C108.274 55.4787 107.718 55.5909 107.042 55.5909H104.656V54.6364H107.008C107.474 54.6364 107.849 54.5682 108.133 54.4318C108.42 54.2955 108.627 54.1023 108.755 53.8523C108.886 53.5994 108.951 53.2983 108.951 52.9489C108.951 52.5994 108.886 52.294 108.755 52.0327C108.625 51.7713 108.416 51.5696 108.129 51.4276C107.842 51.2827 107.463 51.2102 106.991 51.2102H105.133V59H104.076ZM108.184 55.0795L110.332 59H109.105L106.991 55.0795H108.184Z" fill="blue"/>
<path d="M47.0696 8.2813C49.4509 7.84098 51.7859 8.02727 54.0744 8.84016C56.3939 9.65305 58.4041 11.0079 60.1051 12.9046C61.4968 14.4287 62.5638 16.2069 63.306 18.2392C64.0791 20.2375 64.4503 22.3205 64.4193 24.4883C64.4193 26.2156 64.1565 27.9091 63.6307 29.5688C63.1359 31.1945 62.4246 32.7018 61.4968 34.0905C59.9814 36.3259 58.0639 38.0363 55.7444 39.2218C53.425 40.3734 51.0127 40.8645 48.5076 40.6952C47.2088 40.5936 45.9407 40.3057 44.7038 39.8315C43.4667 39.3573 42.3069 38.7307 41.2245 37.9517C40.1729 37.1727 39.2143 36.2581 38.3483 35.2081C37.4823 34.1582 36.7556 32.9896 36.168 31.7026C35.6113 30.4494 35.1938 29.1454 34.9154 27.7906C34.6681 26.4358 34.5753 25.0809 34.6371 23.7262C34.6989 22.3374 34.9 20.9827 35.2402 19.6618C35.6113 18.3069 36.137 17.0367 36.8174 15.8513C37.0339 15.411 37.2968 14.9706 37.606 14.5304H37.6525C38.7968 12.8369 40.1884 11.4651 41.8275 10.4151C43.4667 9.36514 45.214 8.65387 47.0696 8.2813ZM57.0898 30.0768C57.7392 29.0269 58.1876 27.8922 58.4351 26.6729C58.7135 25.4535 58.7753 24.2173 58.6206 22.9641C58.4351 21.7108 58.0949 20.6101 57.6001 19.6618C56.9815 18.4424 56.1774 17.3924 55.1878 16.5117C54.1981 15.6312 53.0848 15.0215 51.8477 14.6828C50.6416 14.3102 49.4045 14.2256 48.1366 14.4287C46.8686 14.632 45.6934 15.1061 44.6109 15.8513C43.2192 16.8336 42.1368 18.1376 41.3637 19.7633C40.5905 21.3891 40.2503 23.1165 40.3431 24.9455C40.4049 26.368 40.7296 27.6889 41.3173 28.9083C41.4719 29.2131 41.611 29.5349 41.7347 29.8736C41.8894 30.1785 42.0595 30.4833 42.2451 30.7881C41.9667 30.28 41.7038 29.755 41.4565 29.2131C41.9512 30.1954 42.5853 31.076 43.3584 31.8551C44.1316 32.6001 44.9975 33.2098 45.9562 33.684C46.9458 34.1582 47.9819 34.4291 49.0643 34.4969C50.1468 34.5308 51.1983 34.3614 52.2189 33.9889C53.2085 33.6501 54.1208 33.142 54.9558 32.4647C55.7909 31.7873 56.5022 30.9913 57.0898 30.0768Z" fill="blue"/>
<path d="M72.5299 10.1611C73.334 10.1611 74.0144 10.4829 74.5711 11.1264C75.1587 11.736 75.4525 12.4812 75.4525 13.3618V37.3928C75.4525 38.2734 75.1587 39.0355 74.5711 39.6791C74.0144 40.2888 73.334 40.5936 72.5299 40.5936C71.7258 40.5936 71.0455 40.2888 70.4887 39.6791C69.932 39.0355 69.6537 38.2734 69.6537 37.3928V13.3618C69.6537 12.4812 69.932 11.736 70.4887 11.1264C71.0455 10.4829 71.7258 10.1611 72.5299 10.1611ZM72.5299 6.40148C71.7258 6.40148 71.0455 6.09666 70.4887 5.48699C69.932 4.84345 69.6537 4.08138 69.6537 3.20075C69.6537 2.32012 69.932 1.57496 70.4887 0.965303C71.0455 0.321768 71.7258 0 72.5299 0C73.334 0 74.0144 0.321768 74.5711 0.965303C75.1587 1.57496 75.4525 2.32012 75.4525 3.20075C75.4525 4.08138 75.1587 4.84345 74.5711 5.48699C74.0144 6.09666 73.334 6.40148 72.5299 6.40148Z" fill="blue"/>
<path d="M108.107 7.97646C108.911 7.97646 109.591 8.29822 110.148 8.94176C110.705 9.55142 110.983 10.2965 110.983 11.1772V24.3866C110.983 26.622 110.581 28.7389 109.776 30.7373C109.004 32.7018 107.937 34.4291 106.576 35.9195C105.246 37.3759 103.668 38.5444 101.844 39.425C100.051 40.2717 98.1331 40.6952 96.0919 40.6952C94.0199 40.6952 92.0714 40.2717 90.2468 39.425C88.4531 38.5444 86.8758 37.3759 85.515 35.9195C84.1852 34.4291 83.1183 32.7018 82.3142 30.7373C81.541 28.7389 81.1545 26.622 81.1545 24.3866V11.1772C81.1545 10.2965 81.4328 9.55142 81.9894 8.94176C82.5771 8.29822 83.2729 7.97646 84.077 7.97646C84.8811 7.97646 85.5615 8.29822 86.1181 8.94176C86.6748 9.55142 86.9532 10.2965 86.9532 11.1772V24.3866C86.9532 25.7753 87.1851 27.0793 87.649 28.2986C88.1438 29.4841 88.7933 30.534 89.5974 31.4485C90.4324 32.363 91.4065 33.0913 92.5199 33.6332C93.6332 34.1412 94.824 34.3953 96.0919 34.3953C97.329 34.3953 98.5042 34.1412 99.6176 33.6332C100.731 33.0913 101.705 32.363 102.54 31.4485C103.375 30.534 104.024 29.4841 104.489 28.2986C104.984 27.0793 105.231 25.7753 105.231 24.3866H105.184V11.1772C105.184 10.2965 105.462 9.55142 106.02 8.94176C106.607 8.29822 107.303 7.97646 108.107 7.97646Z" fill="blue"/>
<path d="M26.9525 41C27.7565 41 28.4369 40.6783 28.9936 40.0347C29.5502 39.425 29.8286 38.6799 29.8286 37.7992V24.5899C29.8286 22.3544 29.4265 20.2375 28.6225 18.2392C27.8494 16.2746 26.7823 14.5473 25.4215 13.057C24.0917 11.6005 22.5145 10.432 20.6898 9.55143C18.8961 8.70467 16.9786 8.2813 14.9375 8.2813C12.8654 8.2813 10.9171 8.70467 9.09239 9.55143C7.29866 10.432 5.72141 11.6005 4.36064 13.057C3.03079 14.5473 1.96383 16.2746 1.15975 18.2392C0.386579 20.2375 0 22.3544 0 24.5899V37.7992C0 38.6799 0.278335 39.425 0.835011 40.0347C1.42262 40.6783 2.11847 41 2.92255 41C3.72664 41 4.40703 40.6783 4.96371 40.0347C5.52038 39.425 5.79872 38.6799 5.79872 37.7992V24.5899C5.79872 23.2012 6.03067 21.8972 6.49456 20.6778C6.98938 19.4923 7.63884 18.4424 8.44294 17.5279C9.27795 16.6134 10.2522 15.8851 11.3655 15.3432C12.4789 14.8352 13.6695 14.5811 14.9375 14.5811C16.1746 14.5811 17.3498 14.8352 18.4631 15.3432C19.5765 15.8851 20.5506 16.6134 21.3857 17.5279C22.2207 18.4424 22.8701 19.4923 23.334 20.6778C23.8289 21.8972 24.0763 23.2012 24.0763 24.5899H24.0299V37.7992C24.0299 38.6799 24.3082 39.425 24.8649 40.0347C25.4525 40.6783 26.1484 41 26.9525 41Z" fill="blue"/>
</svg>
