<svg xmlns="http://www.w3.org/2000/svg" width="109" height="40" viewBox="0 0 109 40" fill="none">
  <path d="M45.9215 8.07931C48.2448 7.64973 50.5228 7.83148 52.7555 8.62454C55.0184 9.4176 56.9796 10.7394 58.6391 12.5898C59.9969 14.0768 61.0378 15.8116 61.7619 17.7943C62.5162 19.7439 62.8783 21.7761 62.8481 23.891C62.8481 25.5762 62.5917 27.2284 62.0787 28.8476C61.596 30.4337 60.902 31.9042 59.9969 33.259C58.5184 35.4399 56.6477 37.1086 54.3848 38.2652C52.1219 39.3887 49.7685 39.8678 47.3245 39.7026C46.0573 39.6035 44.8202 39.3226 43.6134 38.86C42.4065 38.3974 41.275 37.786 40.219 37.026C39.1931 36.266 38.2578 35.3738 37.413 34.3494C36.5681 33.3251 35.8591 32.185 35.2858 30.9294C34.7427 29.7067 34.3354 28.4345 34.0638 27.1128C33.8225 25.791 33.732 24.4692 33.7923 23.1475C33.8526 21.7926 34.0488 20.4709 34.3807 19.1822C34.7427 17.8604 35.2556 16.6212 35.9194 15.4647C36.1306 15.0351 36.3871 14.6055 36.6888 14.176H36.7341C37.8505 12.5238 39.2082 11.1855 40.8073 10.1611C42.4065 9.13672 44.1112 8.44279 45.9215 8.07931ZM55.6973 29.3432C56.3309 28.3189 56.7684 27.2119 57.0098 26.0223C57.2814 24.8327 57.3417 23.6266 57.1908 22.404C57.0098 21.1813 56.6779 20.1074 56.1952 19.1822C55.5917 17.9926 54.8072 16.9682 53.8417 16.109C52.8762 15.2499 51.79 14.6551 50.5831 14.3247C49.4064 13.9612 48.1995 13.8786 46.9625 14.0768C45.7254 14.2751 44.5789 14.7377 43.5228 15.4647C42.1651 16.423 41.1091 17.6952 40.3548 19.2813C39.6005 20.8674 39.2686 22.5527 39.3591 24.3371C39.4194 25.7249 39.7362 27.0136 40.3095 28.2032C40.4604 28.5006 40.5961 28.8145 40.7168 29.145C40.8677 29.4424 41.0336 29.7398 41.2147 30.0372C40.9431 29.5415 40.6866 29.0293 40.4453 28.5006C40.928 29.4589 41.5466 30.318 42.3009 31.0781C43.0552 31.805 43.9 32.3998 44.8353 32.8624C45.8008 33.3251 46.8116 33.5894 47.8676 33.6555C48.9237 33.6886 49.9495 33.5233 50.9452 33.1599C51.9107 32.8294 52.8008 32.3337 53.6154 31.6729C54.4301 31.012 55.1241 30.2354 55.6973 29.3432Z" fill="white"/>
  <path d="M70.7609 9.91326C71.5454 9.91326 72.2092 10.2272 72.7523 10.855C73.3256 11.4498 73.6122 12.1768 73.6122 13.0359V36.4808C73.6122 37.3399 73.3256 38.0834 72.7523 38.7113C72.2092 39.3061 71.5454 39.6035 70.7609 39.6035C69.9764 39.6035 69.3127 39.3061 68.7695 38.7113C68.2264 38.0834 67.9549 37.3399 67.9549 36.4808V13.0359C67.9549 12.1768 68.2264 11.4498 68.7695 10.855C69.3127 10.2272 69.9764 9.91326 70.7609 9.91326ZM70.7609 6.24535C69.9764 6.24535 69.3127 5.94796 68.7695 5.35316C68.2264 4.72532 67.9549 3.98183 67.9549 3.12268C67.9549 2.26353 68.2264 1.53655 68.7695 0.941759C69.3127 0.31392 69.9764 0 70.7609 0C71.5454 0 72.2092 0.31392 72.7523 0.941759C73.3256 1.53655 73.6122 2.26353 73.6122 3.12268C73.6122 3.98183 73.3256 4.72532 72.7523 5.35316C72.2092 5.94796 71.5454 6.24535 70.7609 6.24535Z" fill="white"/>
  <path d="M105.47 7.78191C106.255 7.78191 106.918 8.09583 107.461 8.72367C108.005 9.31846 108.276 10.0454 108.276 10.9046V23.7918C108.276 25.9727 107.884 28.038 107.099 29.9876C106.345 31.9042 105.304 33.5894 103.977 35.0434C102.679 36.4643 101.14 37.6043 99.3603 38.4634C97.6103 39.2895 95.7396 39.7026 93.7482 39.7026C91.7267 39.7026 89.8258 39.2895 88.0457 38.4634C86.2957 37.6043 84.7569 36.4643 83.4293 35.0434C82.1319 33.5894 81.091 31.9042 80.3065 29.9876C79.5522 28.038 79.1751 25.9727 79.1751 23.7918V10.9046C79.1751 10.0454 79.4466 9.31846 79.9897 8.72367C80.563 8.09583 81.2419 7.78191 82.0263 7.78191C82.8108 7.78191 83.4746 8.09583 84.0177 8.72367C84.5608 9.31846 84.8324 10.0454 84.8324 10.9046V23.7918C84.8324 25.1466 85.0586 26.4188 85.5112 27.6084C85.994 28.765 86.6276 29.7893 87.4121 30.6815C88.2267 31.5737 89.1771 32.2842 90.2633 32.8129C91.3495 33.3085 92.5112 33.5564 93.7482 33.5564C94.9551 33.5564 96.1017 33.3085 97.1879 32.8129C98.2741 32.2842 99.2245 31.5737 100.039 30.6815C100.854 29.7893 101.487 28.765 101.94 27.6084C102.423 26.4188 102.664 25.1466 102.664 23.7918H102.619V10.9046C102.619 10.0454 102.89 9.31846 103.434 8.72367C104.007 8.09583 104.686 7.78191 105.47 7.78191Z" fill="white"/>
  <path d="M26.2951 40C27.0795 40 27.7433 39.6861 28.2864 39.0582C28.8295 38.4634 29.1011 37.7365 29.1011 36.8773V23.9901C29.1011 21.8092 28.7088 19.7439 27.9244 17.7943C27.1701 15.8777 26.1291 14.1925 24.8015 12.7385C23.5041 11.3176 21.9654 10.1776 20.1852 9.31847C18.4352 8.49236 16.5645 8.07931 14.5732 8.07931C12.5516 8.07931 10.6508 8.49236 8.87062 9.31847C7.12064 10.1776 5.58186 11.3176 4.25428 12.7385C2.95687 14.1925 1.91593 15.8777 1.13146 17.7943C0.37715 19.7439 0 21.8092 0 23.9901V36.8773C0 37.7365 0.271546 38.4634 0.814645 39.0582C1.38792 39.6861 2.0668 40 2.85127 40C3.63575 40 4.29954 39.6861 4.84264 39.0582C5.38574 38.4634 5.65729 37.7365 5.65729 36.8773V23.9901C5.65729 22.6353 5.88358 21.3631 6.33616 20.1735C6.81891 19.0169 7.45253 17.9926 8.23701 17.1004C9.05166 16.2082 10.0021 15.4977 11.0883 14.969C12.1745 14.4734 13.3361 14.2255 14.5732 14.2255C15.7801 14.2255 16.9266 14.4734 18.0128 14.969C19.099 15.4977 20.0494 16.2082 20.8641 17.1004C21.6787 17.9926 22.3123 19.0169 22.7649 20.1735C23.2477 21.3631 23.4891 22.6353 23.4891 23.9901H23.4438V36.8773C23.4438 37.7365 23.7153 38.4634 24.2584 39.0582C24.8317 39.6861 25.5106 40 26.2951 40Z" fill="white"/>
</svg>